# xmcd
#
# Track frame offsets:
#	150
#	9585
#	21735
#	33465
#	41697
#	52265
#	63027
#	72507
#	82360
#	92357
#	106100
#	115965
#
# Disc length: 1709 seconds
#
# Revision: 1
# Processed by: cddbd v1.5.1PL0 Copyright (c) Steve Scherf et al.
# Submitted via: CDex 1.50Beta5
#
DISCID=a506ab0c
DTITLE=ビリーボーン - BILLY VAUGHN
DYEAR=1900
DGENRE=Jazz
TTITLE0=1
TTITLE1=2
TTITLE2=3スート・レイニラ
TTITLE3=4ハワイアン・ウォー・チャント
TTITLE4=5
TTITLE5=6
TTITLE6=7
TTITLE7=8波路はるか
TTITLE8=9
TTITLE9=10
TTITLE10=11マオ・リトルグラス
TTITLE11=12
EXTD=
EXTT0=
EXTT1=
EXTT2=
EXTT3=
EXTT4=
EXTT5=
EXTT6=
EXTT7=
EXTT8=
EXTT9=
EXTT10=
EXTT11=
PLAYORDER=
